<mxfile host="app.diagrams.net" modified="2024-07-12T16:30:57.113Z" agent="Mozilla/5.0 (Windows NT 10.0; Win64; x64) AppleWebKit/537.36 (KHTML, like Gecko) Chrome/126.0.0.0 Safari/537.36" etag="Vm3ssd8t3fnF1xDpDduq" version="24.6.5" type="github">
  <diagram name="Page-1" id="EqmyDCXaf2DshQU4y2Iw">
    <mxGraphModel dx="1034" dy="454" grid="1" gridSize="10" guides="1" tooltips="1" connect="1" arrows="1" fold="1" page="1" pageScale="1" pageWidth="850" pageHeight="1100" math="0" shadow="0">
      <root>
        <mxCell id="0" />
        <mxCell id="1" parent="0" />
        <mxCell id="Tm-v6cGm3aEhVGjxqlB1-1" value="" style="rounded=0;html=1;jettySize=auto;orthogonalLoop=1;fontSize=12;endArrow=classic;endFill=1;endSize=8;strokeWidth=1;shadow=0;labelBackgroundColor=none;edgeStyle=orthogonalEdgeStyle;" edge="1" parent="1" source="Tm-v6cGm3aEhVGjxqlB1-2" target="Tm-v6cGm3aEhVGjxqlB1-5">
          <mxGeometry relative="1" as="geometry" />
        </mxCell>
        <mxCell id="Tm-v6cGm3aEhVGjxqlB1-2" value="End-User" style="rounded=1;whiteSpace=wrap;html=1;fontSize=12;glass=0;strokeWidth=1;shadow=0;fillColor=#dae8fc;gradientColor=#7ea6e0;strokeColor=#6c8ebf;" vertex="1" parent="1">
          <mxGeometry x="195" y="40" width="120" height="40" as="geometry" />
        </mxCell>
        <mxCell id="Tm-v6cGm3aEhVGjxqlB1-3" value="Yes" style="rounded=0;html=1;jettySize=auto;orthogonalLoop=1;fontSize=12;endArrow=classic;endFill=1;endSize=8;strokeWidth=1;shadow=0;labelBackgroundColor=none;edgeStyle=orthogonalEdgeStyle;" edge="1" parent="1" source="Tm-v6cGm3aEhVGjxqlB1-5" target="Tm-v6cGm3aEhVGjxqlB1-8">
          <mxGeometry x="0.1996" y="-25" relative="1" as="geometry">
            <mxPoint y="-1" as="offset" />
          </mxGeometry>
        </mxCell>
        <mxCell id="Tm-v6cGm3aEhVGjxqlB1-4" value="No" style="edgeStyle=orthogonalEdgeStyle;rounded=0;html=1;jettySize=auto;orthogonalLoop=1;fontSize=12;endArrow=classic;endFill=1;endSize=8;strokeWidth=1;shadow=0;labelBackgroundColor=none;" edge="1" parent="1" source="Tm-v6cGm3aEhVGjxqlB1-5" target="Tm-v6cGm3aEhVGjxqlB1-6">
          <mxGeometry y="25" relative="1" as="geometry">
            <mxPoint as="offset" />
          </mxGeometry>
        </mxCell>
        <mxCell id="Tm-v6cGm3aEhVGjxqlB1-5" value="Registered" style="rhombus;whiteSpace=wrap;html=1;shadow=0;fontFamily=Helvetica;fontSize=12;align=center;strokeWidth=1;spacing=6;spacingTop=-4;" vertex="1" parent="1">
          <mxGeometry x="200" y="120" width="110" height="90" as="geometry" />
        </mxCell>
        <mxCell id="Tm-v6cGm3aEhVGjxqlB1-6" value="Sign Up" style="rounded=1;whiteSpace=wrap;html=1;fontSize=12;glass=0;strokeWidth=1;shadow=0;" vertex="1" parent="1">
          <mxGeometry x="350" y="145" width="120" height="40" as="geometry" />
        </mxCell>
        <mxCell id="Tm-v6cGm3aEhVGjxqlB1-7" value="Yes" style="rounded=0;html=1;jettySize=auto;orthogonalLoop=1;fontSize=12;endArrow=classic;endFill=1;endSize=8;strokeWidth=1;shadow=0;labelBackgroundColor=none;edgeStyle=orthogonalEdgeStyle;" edge="1" parent="1" source="Tm-v6cGm3aEhVGjxqlB1-8" target="Tm-v6cGm3aEhVGjxqlB1-10">
          <mxGeometry y="15" relative="1" as="geometry">
            <mxPoint y="-1" as="offset" />
          </mxGeometry>
        </mxCell>
        <mxCell id="Tm-v6cGm3aEhVGjxqlB1-8" value="Okta&lt;div style=&quot;font-size: 12px;&quot;&gt;Authentication&lt;/div&gt;" style="rhombus;whiteSpace=wrap;html=1;shadow=0;fontFamily=Helvetica;fontSize=12;align=center;strokeWidth=1;spacing=6;spacingTop=-4;" vertex="1" parent="1">
          <mxGeometry x="200" y="240" width="110" height="90" as="geometry" />
        </mxCell>
        <mxCell id="Tm-v6cGm3aEhVGjxqlB1-10" value="Login Successful" style="rounded=1;whiteSpace=wrap;html=1;fontSize=12;glass=0;strokeWidth=1;shadow=0;" vertex="1" parent="1">
          <mxGeometry x="195" y="390" width="120" height="40" as="geometry" />
        </mxCell>
        <mxCell id="Tm-v6cGm3aEhVGjxqlB1-11" value="Receive Okta&lt;br style=&quot;font-size: 12px;&quot;&gt;&lt;div style=&quot;font-size: 12px;&quot;&gt;Credentials&lt;/div&gt;" style="rounded=1;whiteSpace=wrap;html=1;fontSize=12;glass=0;strokeWidth=1;shadow=0;" vertex="1" parent="1">
          <mxGeometry x="350" y="265" width="120" height="40" as="geometry" />
        </mxCell>
        <mxCell id="Tm-v6cGm3aEhVGjxqlB1-12" value="" style="endArrow=classic;html=1;rounded=0;exitX=0.5;exitY=1;exitDx=0;exitDy=0;entryX=0.5;entryY=0;entryDx=0;entryDy=0;endFill=1;fontSize=12;" edge="1" parent="1" source="Tm-v6cGm3aEhVGjxqlB1-6" target="Tm-v6cGm3aEhVGjxqlB1-11">
          <mxGeometry width="50" height="50" relative="1" as="geometry">
            <mxPoint x="410" y="220" as="sourcePoint" />
            <mxPoint x="460" y="170" as="targetPoint" />
          </mxGeometry>
        </mxCell>
        <mxCell id="Tm-v6cGm3aEhVGjxqlB1-13" value="" style="endArrow=classic;html=1;rounded=0;exitX=0;exitY=0.5;exitDx=0;exitDy=0;entryX=1;entryY=0.5;entryDx=0;entryDy=0;endFill=1;fontSize=12;" edge="1" parent="1" source="Tm-v6cGm3aEhVGjxqlB1-11" target="Tm-v6cGm3aEhVGjxqlB1-8">
          <mxGeometry width="50" height="50" relative="1" as="geometry">
            <mxPoint x="540" y="200" as="sourcePoint" />
            <mxPoint x="540" y="280" as="targetPoint" />
          </mxGeometry>
        </mxCell>
        <mxCell id="Tm-v6cGm3aEhVGjxqlB1-14" value="Login&amp;nbsp;Failure" style="rounded=1;whiteSpace=wrap;html=1;fontSize=12;glass=0;strokeWidth=1;shadow=0;" vertex="1" parent="1">
          <mxGeometry x="40" y="265" width="120" height="40" as="geometry" />
        </mxCell>
        <mxCell id="Tm-v6cGm3aEhVGjxqlB1-15" value="No" style="rounded=0;html=1;jettySize=auto;orthogonalLoop=1;fontSize=12;endArrow=classic;endFill=1;endSize=8;strokeWidth=1;shadow=0;labelBackgroundColor=none;edgeStyle=orthogonalEdgeStyle;exitX=0;exitY=0.5;exitDx=0;exitDy=0;entryX=1;entryY=0.5;entryDx=0;entryDy=0;" edge="1" parent="1" source="Tm-v6cGm3aEhVGjxqlB1-8" target="Tm-v6cGm3aEhVGjxqlB1-14">
          <mxGeometry y="25" relative="1" as="geometry">
            <mxPoint as="offset" />
            <mxPoint x="195" y="340" as="sourcePoint" />
            <mxPoint x="195" y="400" as="targetPoint" />
          </mxGeometry>
        </mxCell>
        <mxCell id="Tm-v6cGm3aEhVGjxqlB1-16" value="&lt;b style=&quot;font-size: 12px;&quot;&gt;List of Applicable&lt;/b&gt;&lt;div style=&quot;font-size: 12px;&quot;&gt;&lt;b style=&quot;font-size: 12px;&quot;&gt;Documents&amp;nbsp;&lt;span style=&quot;background-color: initial; font-size: 12px;&quot;&gt;as per&amp;nbsp;&lt;/span&gt;&lt;/b&gt;&lt;/div&gt;&lt;div style=&quot;font-size: 12px;&quot;&gt;&lt;span style=&quot;background-color: initial; font-size: 12px;&quot;&gt;&lt;b style=&quot;font-size: 12px;&quot;&gt;IDP Services&lt;/b&gt;&lt;/span&gt;&lt;/div&gt;" style="rounded=1;whiteSpace=wrap;html=1;fontSize=12;glass=0;strokeWidth=1;shadow=0;" vertex="1" parent="1">
          <mxGeometry x="414" y="380" width="120" height="60" as="geometry" />
        </mxCell>
        <mxCell id="Tm-v6cGm3aEhVGjxqlB1-17" value="Yes" style="rounded=0;html=1;jettySize=auto;orthogonalLoop=1;fontSize=12;endArrow=classic;endFill=1;endSize=8;strokeWidth=1;shadow=0;labelBackgroundColor=none;edgeStyle=orthogonalEdgeStyle;entryX=0;entryY=0.5;entryDx=0;entryDy=0;exitX=1;exitY=0.5;exitDx=0;exitDy=0;" edge="1" parent="1" source="Tm-v6cGm3aEhVGjxqlB1-10" target="Tm-v6cGm3aEhVGjxqlB1-16">
          <mxGeometry x="0.027" y="10" relative="1" as="geometry">
            <mxPoint as="offset" />
            <mxPoint x="265" y="340" as="sourcePoint" />
            <mxPoint x="265" y="400" as="targetPoint" />
          </mxGeometry>
        </mxCell>
        <mxCell id="Tm-v6cGm3aEhVGjxqlB1-18" value="" style="endArrow=classic;html=1;rounded=0;exitX=1;exitY=0.5;exitDx=0;exitDy=0;entryX=0;entryY=0.5;entryDx=0;entryDy=0;fontSize=12;" edge="1" parent="1" source="Tm-v6cGm3aEhVGjxqlB1-16">
          <mxGeometry width="50" height="50" relative="1" as="geometry">
            <mxPoint x="420" y="380" as="sourcePoint" />
            <mxPoint x="561" y="410" as="targetPoint" />
          </mxGeometry>
        </mxCell>
      </root>
    </mxGraphModel>
  </diagram>
</mxfile>
